<svg width="26" height="23" viewBox="0 0 26 23" fill="none" xmlns="http://www.w3.org/2000/svg">
<path d="M13 22L12.5983 21.6483C3.46025 14.2129 1 11.6005 1 7.33014C1 3.81339 3.86192 1 7.32636 1C10.2385 1 11.8954 2.65789 13 3.91387C14.1046 2.65789 15.7615 1 18.6736 1C22.1883 1 25 3.86363 25 7.33014C25 11.6005 22.5398 14.2129 13.4017 21.6483L13 22ZM7.32636 2.30622C4.56485 2.30622 2.30543 4.56698 2.30543 7.33014C2.30543 10.9976 4.61506 13.4091 13 20.2919C21.3849 13.4091 23.6946 10.9976 23.6946 7.33014C23.6946 4.56698 21.4351 2.30622 18.6736 2.30622C16.1632 2.30622 14.8075 3.8134 13.7531 5.01914L13 5.87321L12.2469 5.01914C11.1925 3.8134 9.83682 2.30622 7.32636 2.30622Z" fill="#8C8C8C" stroke="#8C8C8C" stroke-width="0.5"/>
</svg>
