<svg width="20" height="19" viewBox="0 0 20 19" fill="none" xmlns="http://www.w3.org/2000/svg">
<mask id="path-1-inside-1_1_9" fill="white">
<path d="M10 15.0665L9.75 14.8671C4.0625 10.6519 2.53125 9.17088 2.53125 6.75C2.53125 4.75633 4.3125 3.16139 6.46875 3.16139C8.28125 3.16139 9.3125 4.10126 10 4.81329C10.6875 4.10126 11.7188 3.16139 13.5313 3.16139C15.7188 3.16139 17.4688 4.78481 17.4688 6.75C17.4688 9.17088 15.9375 10.6519 10.25 14.8671L10 15.0665ZM6.46875 3.9019C4.75 3.9019 3.34375 5.18354 3.34375 6.75C3.34375 8.82911 4.78125 10.1962 10 14.0981C15.2188 10.1962 16.6563 8.82911 16.6563 6.75C16.6563 5.18354 15.25 3.9019 13.5313 3.9019C11.9688 3.9019 11.125 4.75633 10.4688 5.43987L10 5.92405L9.53125 5.43987C8.875 4.75633 8.03125 3.9019 6.46875 3.9019Z"/>
</mask>
<path d="M10 15.0665L9.75 14.8671C4.0625 10.6519 2.53125 9.17088 2.53125 6.75C2.53125 4.75633 4.3125 3.16139 6.46875 3.16139C8.28125 3.16139 9.3125 4.10126 10 4.81329C10.6875 4.10126 11.7188 3.16139 13.5313 3.16139C15.7188 3.16139 17.4688 4.78481 17.4688 6.75C17.4688 9.17088 15.9375 10.6519 10.25 14.8671L10 15.0665ZM6.46875 3.9019C4.75 3.9019 3.34375 5.18354 3.34375 6.75C3.34375 8.82911 4.78125 10.1962 10 14.0981C15.2188 10.1962 16.6563 8.82911 16.6563 6.75C16.6563 5.18354 15.25 3.9019 13.5313 3.9019C11.9688 3.9019 11.125 4.75633 10.4688 5.43987L10 5.92405L9.53125 5.43987C8.875 4.75633 8.03125 3.9019 6.46875 3.9019Z" fill="#8C8C8C"/>
<path d="M10 15.0665L9.37652 15.8483L10 16.3455L10.6235 15.8483L10 15.0665ZM9.75 14.8671L10.3735 14.0852L10.3596 14.0742L10.3454 14.0637L9.75 14.8671ZM10 4.81329L9.28061 5.5079L10 6.25295L10.7194 5.5079L10 4.81329ZM10.25 14.8671L9.65457 14.0637L9.64035 14.0742L9.62652 14.0852L10.25 14.8671ZM10 14.0981L9.4012 14.899L10 15.3467L10.5988 14.899L10 14.0981ZM10.4688 5.43987L11.1872 6.13545L11.1901 6.13243L10.4688 5.43987ZM10 5.92405L9.28154 6.61962L10 7.36172L10.7185 6.61962L10 5.92405ZM9.53125 5.43987L8.80988 6.13244L8.81279 6.13544L9.53125 5.43987ZM10.6235 14.2846L10.3735 14.0852L9.12651 15.6489L9.37652 15.8483L10.6235 14.2846ZM10.3454 14.0637C7.48518 11.9439 5.76329 10.577 4.74682 9.46197C3.78742 8.40959 3.53125 7.66549 3.53125 6.75H1.53125C1.53125 8.25539 2.04071 9.46224 3.26881 10.8094C4.43983 12.0939 6.32732 13.5751 9.15457 15.6705L10.3454 14.0637ZM3.53125 6.75C3.53125 5.3988 4.77006 4.16139 6.46875 4.16139V2.16139C3.85494 2.16139 1.53125 4.11385 1.53125 6.75H3.53125ZM6.46875 4.16139C7.86613 4.16139 8.65027 4.85507 9.28061 5.5079L10.7194 4.11868C9.97473 3.34746 8.69636 2.16139 6.46875 2.16139V4.16139ZM10.7194 5.5079C11.3497 4.85507 12.1339 4.16139 13.5313 4.16139V2.16139C11.3036 2.16139 10.0253 3.34746 9.28061 4.11868L10.7194 5.5079ZM13.5313 4.16139C15.2504 4.16139 16.4688 5.41748 16.4688 6.75H18.4688C18.4688 4.15213 16.1871 2.16139 13.5313 2.16139V4.16139ZM16.4688 6.75C16.4688 7.66549 16.2126 8.40959 15.2532 9.46197C14.2367 10.577 12.5148 11.9439 9.65457 14.0637L10.8454 15.6705C13.6727 13.5751 15.5602 12.0939 16.7312 10.8094C17.9593 9.46224 18.4688 8.25539 18.4688 6.75H16.4688ZM9.62652 14.0852L9.37652 14.2846L10.6235 15.8483L10.8735 15.6489L9.62652 14.0852ZM6.46875 2.9019C4.28706 2.9019 2.34375 4.54596 2.34375 6.75H4.34375C4.34375 5.82112 5.21294 4.9019 6.46875 4.9019V2.9019ZM2.34375 6.75C2.34375 8.10651 2.84822 9.20007 3.98209 10.421C5.06659 11.5888 6.80775 12.96 9.4012 14.899L10.5988 13.2972C7.9735 11.3343 6.38653 10.071 5.44759 9.06C4.55803 8.10214 4.34375 7.4726 4.34375 6.75H2.34375ZM10.5988 14.899C13.1923 12.96 14.9334 11.5888 16.0179 10.421C17.1518 9.20007 17.6563 8.10651 17.6563 6.75H15.6563C15.6563 7.4726 15.442 8.10214 14.5524 9.06C13.6135 10.071 12.0265 11.3343 9.4012 13.2972L10.5988 14.899ZM17.6563 6.75C17.6563 4.54596 15.7129 2.9019 13.5313 2.9019V4.9019C14.7871 4.9019 15.6563 5.82112 15.6563 6.75H17.6563ZM13.5313 2.9019C11.5212 2.9019 10.4203 4.04646 9.74739 4.74732L11.1901 6.13243C11.8297 5.4662 12.4163 4.9019 13.5313 4.9019V2.9019ZM9.75029 4.7443L9.28154 5.22848L10.7185 6.61962L11.1872 6.13544L9.75029 4.7443ZM10.7185 5.22848L10.2497 4.7443L8.81279 6.13544L9.28154 6.61962L10.7185 5.22848ZM10.2526 4.74732C9.57974 4.04646 8.47881 2.9019 6.46875 2.9019V4.9019C7.58368 4.9019 8.17026 5.4662 8.80989 6.13243L10.2526 4.74732Z" fill="#8C8C8C" mask="url(#path-1-inside-1_1_9)"/>
</svg>
