<svg width="130" height="128" viewBox="0 0 130 128" fill="none" xmlns="http://www.w3.org/2000/svg">
<g clip-path="url(#clip0_1_13)" filter="url(#filter0_d_1_13)">
<path d="M107.6 112.7H21.6C13.3 112.7 6.60001 106 6.60001 97.7V46.1C6.60001 37.8 13.3 31.1 21.6 31.1H107.6C115.9 31.1 122.6 37.8 122.6 46.1V97.8C122.6 106 115.9 112.7 107.6 112.7Z" fill="#AFA3AF"/>
<path opacity="0.2" d="M19.3 85.9H110.6C115 85.9 119.1 84.5 122.5 82V46C122.5 37.7 115.8 31 107.5 31H21.5C13.2 31 6.5 37.7 6.5 46V81.4C10.2 84.3 14.6 85.9 19.3 85.9Z" fill="#593055"/>
<path d="M107.6 113.7H21.6C12.8 113.7 5.60001 106.5 5.60001 97.7V46.1C5.60001 37.3 12.8 30.1 21.6 30.1H107.6C116.4 30.1 123.6 37.3 123.6 46.1V97.8C123.6 106.5 116.4 113.7 107.6 113.7ZM21.6 32.1C13.9 32.1 7.60001 38.4 7.60001 46.1V97.8C7.60001 105.5 13.9 111.8 21.6 111.8H107.6C115.3 111.8 121.6 105.5 121.6 97.8V46.1C121.6 38.4 115.3 32.1 107.6 32.1H21.6Z" fill="#62355C"/>
<path d="M64.6 91.2C61.8 91.2 59.6 89 59.6 86.2V80.5H69.6V86.2C69.6 88.9 67.4 91.2 64.6 91.2Z" fill="white"/>
<path d="M64.6 92.2C61.3 92.2 58.6 89.5 58.6 86.2V80C58.6 79.4 59 79 59.6 79H69.6C70.2 79 70.6 79.4 70.6 80V86.2C70.6 89.5 67.9 92.2 64.6 92.2ZM60.6 80.9V86.1C60.6 88.3 62.4 90.1 64.6 90.1C66.8 90.1 68.6 88.3 68.6 86.1V80.9H60.6Z" fill="#62355C"/>
<g filter="url(#filter1_d_1_13)">
<mask id="path-6-inside-1_1_13" fill="white">
<path d="M31.9 26.8H19.6C11.8 26.8 5.4 33.1 5.3 41L5 65.4C4.9 73.4 11.3 79.9 19.3 79.9H110.6C118.6 79.9 125 73.4 124.9 65.4L124.6 40.9C124.5 33.1 118.1 26.7 110.3 26.7H97.3H31.9"/>
</mask>
<path d="M31.9 26.8H19.6C11.8 26.8 5.4 33.1 5.3 41L5 65.4C4.9 73.4 11.3 79.9 19.3 79.9H110.6C118.6 79.9 125 73.4 124.9 65.4L124.6 40.9C124.5 33.1 118.1 26.7 110.3 26.7H97.3H31.9" fill="#938993"/>
<path d="M5.3 41L4.30008 40.9873L4.30007 40.9877L5.3 41ZM5 65.4L5.99992 65.4125L5.99992 65.4123L5 65.4ZM124.9 65.4L123.9 65.4122L123.9 65.4125L124.9 65.4ZM124.6 40.9L125.6 40.8878L125.6 40.8872L124.6 40.9ZM31.9 25.8H19.6V27.8H31.9V25.8ZM19.6 25.8C11.2499 25.8 4.40697 32.5428 4.30008 40.9873L6.29992 41.0127C6.39302 33.6572 12.3501 27.8 19.6 27.8V25.8ZM4.30007 40.9877L4.00007 65.3877L5.99992 65.4123L6.29992 41.0123L4.30007 40.9877ZM4.00007 65.3875C3.89313 73.9428 10.741 80.9 19.3 80.9V78.9C11.859 78.9 5.90686 72.8572 5.99992 65.4125L4.00007 65.3875ZM19.3 80.9H110.6V78.9H19.3V80.9ZM110.6 80.9C119.159 80.9 126.007 73.9428 125.9 65.3875L123.9 65.4125C123.993 72.8572 118.041 78.9 110.6 78.9V80.9ZM125.9 65.3878L125.6 40.8878L123.6 40.9122L123.9 65.4122L125.9 65.3878ZM125.6 40.8872C125.493 32.5474 118.655 25.7 110.3 25.7V27.7C117.545 27.7 123.507 33.6526 123.6 40.9128L125.6 40.8872ZM110.3 25.7H97.3V27.7H110.3V25.7ZM97.3 25.7H31.9V27.7H97.3V25.7Z" fill="black" mask="url(#path-6-inside-1_1_13)"/>
</g>
<path d="M110.7 80.9H19.3C15.2 80.9 11.3 79.3 8.4 76.3C5.5 73.4 4 69.5 4 65.4L4.3 40.9C4.4 32.5 11.3 25.8 19.6 25.8H110.4C118.8 25.8 125.6 32.6 125.7 40.9L126 65.4C126 69.5 124.5 73.4 121.6 76.4C118.7 79.3 114.8 80.9 110.7 80.9ZM19.6 27.8C12.3 27.8 6.4 33.7 6.3 41L6 65.4C6 69 7.3 72.4 9.8 74.9C12.3 77.5 15.7 78.9 19.3 78.9H110.6C114.2 78.9 117.6 77.5 120.1 74.9C122.6 72.3 124 69 123.9 65.4L123.6 40.9C123.5 33.6 117.5 27.7 110.3 27.7H19.6V27.8Z" fill="#62355C"/>
<path d="M64.7 63.2C64.6 63.2 64.6 63.2 64.5 63.2C59.8 63.2 56 67.1 56 71.6V80.4H73.2V71.6C73.3 67.1 69.5 63.2 64.7 63.2Z" fill="#1C181A"/>
<path d="M73.2 80.9H56C55.7 80.9 55.5 80.8 55.3 80.6C55.1 80.4 55 80.2 55 79.9L55.1 71.6C55.1 66.4 59.4 62.2 64.6 62.2H64.8C70 62.2 74.3 66.4 74.3 71.6L74.2 79.9C74.2 80.5 73.8 80.9 73.2 80.9ZM57 78.9H72.2V71.6C72.2 67.5 68.8 64.2 64.7 64.2H64.5C60.4 64.2 57 67.5 57 71.6V78.9Z" fill="#62355C"/>
<path d="M86.1 27.8C85.5 27.8 85.1 27.4 85.1 26.8C85.1 23.5 84.3 21.1 82.7 19.5C79.5 16.3 73.1 16.3 65.7 16.3H64.6H63.5C56.1 16.3 49.7 16.3 46.5 19.5C44.9 21.1 44.1 23.5 44.1 26.8C44.1 27.4 43.7 27.8 43.1 27.8C42.5 27.8 42.1 27.4 42.1 26.8C42.1 22.9 43.1 20.1 45.1 18.1C48.9 14.3 55.6 14.3 63.5 14.3H64.6H65.7C73.5 14.3 80.3 14.3 84.1 18.1C86.1 20.1 87.1 22.9 87.1 26.8C87.1 27.3 86.6 27.8 86.1 27.8Z" fill="#62355C"/>
</g>
<defs>
<filter id="filter0_d_1_13" x="-3" y="0" width="136" height="136" filterUnits="userSpaceOnUse" color-interpolation-filters="sRGB">
<feFlood flood-opacity="0" result="BackgroundImageFix"/>
<feColorMatrix in="SourceAlpha" type="matrix" values="0 0 0 0 0 0 0 0 0 0 0 0 0 0 0 0 0 0 127 0" result="hardAlpha"/>
<feOffset dy="4"/>
<feGaussianBlur stdDeviation="2"/>
<feComposite in2="hardAlpha" operator="out"/>
<feColorMatrix type="matrix" values="0 0 0 0 0 0 0 0 0 0 0 0 0 0 0 0 0 0 0.25 0"/>
<feBlend mode="normal" in2="BackgroundImageFix" result="effect1_dropShadow_1_13"/>
<feBlend mode="normal" in="SourceGraphic" in2="effect1_dropShadow_1_13" result="shape"/>
</filter>
<filter id="filter1_d_1_13" x="0.99884" y="26.7" width="127.902" height="61.2" filterUnits="userSpaceOnUse" color-interpolation-filters="sRGB">
<feFlood flood-opacity="0" result="BackgroundImageFix"/>
<feColorMatrix in="SourceAlpha" type="matrix" values="0 0 0 0 0 0 0 0 0 0 0 0 0 0 0 0 0 0 127 0" result="hardAlpha"/>
<feOffset dy="4"/>
<feGaussianBlur stdDeviation="2"/>
<feComposite in2="hardAlpha" operator="out"/>
<feColorMatrix type="matrix" values="0 0 0 0 0 0 0 0 0 0 0 0 0 0 0 0 0 0 0.25 0"/>
<feBlend mode="normal" in2="BackgroundImageFix" result="effect1_dropShadow_1_13"/>
<feBlend mode="normal" in="SourceGraphic" in2="effect1_dropShadow_1_13" result="shape"/>
</filter>
<clipPath id="clip0_1_13">
<rect width="128" height="128" fill="white" transform="translate(1)"/>
</clipPath>
</defs>
</svg>
