<svg width="80" height="83" viewBox="0 0 80 83" fill="none" xmlns="http://www.w3.org/2000/svg">
<path d="M62.1531 51.2266H30.1016C29.5697 51.2275 29.0534 51.0407 28.6374 50.6969C28.2215 50.3531 27.9306 49.8728 27.8125 49.3348L22.4156 24.9405C22.3367 24.5842 22.3362 24.214 22.4142 23.8574C22.4923 23.5009 22.6468 23.1671 22.8663 22.8811C23.0859 22.5951 23.3648 22.3641 23.6822 22.2054C23.9997 22.0466 24.3476 21.9642 24.7 21.9642H67.5547C67.9075 21.9634 68.2559 22.0453 68.574 22.2038C68.892 22.3622 69.1715 22.5931 69.3916 22.8792C69.6116 23.1653 69.7666 23.4993 69.8449 23.8562C69.9232 24.2131 69.9228 24.5838 69.8437 24.9405L64.4375 49.3348C64.3196 49.8719 64.0294 50.3517 63.6144 50.6954C63.1994 51.0391 62.6841 51.2264 62.1531 51.2266V51.2266ZM31.9672 46.3633H60.2875L64.6109 26.8324H27.6422L31.9672 46.3633Z" fill="#8C8C8C"/>
<path d="M34.6875 72.9492C32.9112 72.9492 31.1748 72.4027 29.6978 71.3788C28.2208 70.355 27.0697 68.8997 26.3899 67.197C25.7101 65.4944 25.5323 63.6208 25.8788 61.8133C26.2254 60.0058 27.0808 58.3455 28.3368 57.0423C29.5929 55.7392 31.1932 54.8517 32.9354 54.4922C34.6775 54.1326 36.4834 54.3172 38.1245 55.0224C39.7656 55.7277 41.1683 56.922 42.1551 58.4543C43.142 59.9867 43.6688 61.7882 43.6688 63.6312C43.6663 66.1017 42.7192 68.4703 41.0355 70.2172C39.3517 71.9641 37.0687 72.9466 34.6875 72.9492V72.9492ZM34.6875 59.178C33.8382 59.178 33.008 59.4393 32.3019 59.9289C31.5957 60.4185 31.0454 61.1143 30.7205 61.9284C30.3955 62.7425 30.3106 63.6383 30.4764 64.5025C30.6422 65.3667 31.0513 66.1604 31.6519 66.7834C32.2526 67.4063 33.0178 67.8305 33.8508 68.0022C34.6838 68.1739 35.5472 68.0854 36.3317 67.748C37.1163 67.4106 37.7868 66.8393 38.2584 66.1066C38.73 65.3738 38.9816 64.5123 38.9813 63.6312C38.98 62.4502 38.5272 61.3181 37.7222 60.4832C36.9172 59.6483 35.8258 59.1789 34.6875 59.178V59.178Z" fill="#8C8C8C"/>
<path d="M57.5656 72.9492C55.7893 72.9492 54.0529 72.4027 52.5759 71.3788C51.0989 70.355 49.9478 68.8997 49.268 67.197C48.5883 65.4944 48.4104 63.6208 48.7569 61.8133C49.1035 60.0058 49.9589 58.3455 51.2149 57.0423C52.471 55.7392 54.0713 54.8517 55.8135 54.4922C57.5557 54.1326 59.3615 54.3172 61.0026 55.0224C62.6437 55.7277 64.0464 56.922 65.0333 58.4543C66.0201 59.9867 66.5469 61.7882 66.5469 63.6312C66.5444 66.1017 65.5974 68.4703 63.9136 70.2172C62.2298 71.9641 59.9468 72.9466 57.5656 72.9492V72.9492ZM57.5656 59.178C56.7163 59.178 55.8861 59.4393 55.18 59.9289C54.4738 60.4185 53.9235 61.1143 53.5986 61.9284C53.2736 62.7425 53.1887 63.6383 53.3545 64.5025C53.5203 65.3667 53.9294 66.1604 54.53 66.7834C55.1307 67.4063 55.8959 67.8305 56.7289 68.0022C57.5619 68.1739 58.4253 68.0854 59.2099 67.748C59.9944 67.4106 60.6649 66.8393 61.1365 66.1066C61.6081 65.3738 61.8597 64.5123 61.8594 63.6312C61.8581 62.4502 61.4053 61.3181 60.6003 60.4832C59.7953 59.6483 58.7039 59.1789 57.5656 59.178Z" fill="#8C8C8C"/>
<path d="M24.7 26.8275C24.208 26.8274 23.7285 26.6668 23.3295 26.3683C22.9304 26.0697 22.632 25.6485 22.4766 25.1642L18.4594 12.6445H11.0469C10.4253 12.6445 9.82913 12.3883 9.38959 11.9323C8.95006 11.4763 8.70312 10.8578 8.70312 10.2129C8.70312 9.56798 8.95006 8.94948 9.38959 8.49346C9.82913 8.03744 10.4253 7.78125 11.0469 7.78125H20.1562C20.6482 7.7813 21.1277 7.94196 21.5268 8.24048C21.9258 8.53899 22.2242 8.96023 22.3797 9.44449L26.9313 23.6274C27.0486 23.9929 27.0805 24.3821 27.0245 24.7629C26.9684 25.1437 26.826 25.5053 26.6088 25.8178C26.3917 26.1303 26.1061 26.3848 25.7756 26.5603C25.4451 26.7359 25.0791 26.8274 24.7078 26.8275H24.7Z" fill="#8C8C8C"/>
<path d="M24.7 26.8275C24.208 26.8274 23.7285 26.6668 23.3295 26.3683C22.9304 26.0697 22.632 25.6485 22.4766 25.1642L18.4594 12.6445H11.0469C10.4253 12.6445 9.82913 12.3883 9.38959 11.9323C8.95006 11.4763 8.70312 10.8578 8.70312 10.2129C8.70312 9.56798 8.95006 8.94948 9.38959 8.49346C9.82913 8.03744 10.4253 7.78125 11.0469 7.78125H20.1562C20.6482 7.7813 21.1277 7.94196 21.5268 8.24048C21.9258 8.53899 22.2242 8.96023 22.3797 9.44449L26.9313 23.6274C27.0486 23.9929 27.0805 24.3821 27.0245 24.7629C26.9684 25.1437 26.826 25.5053 26.6088 25.8178C26.3917 26.1303 26.1061 26.3848 25.7756 26.5603C25.4451 26.7359 25.0791 26.8274 24.7078 26.8275H24.7Z" stroke="#8C8C8C"/>
</svg>
